<?xml version="1.0" encoding="iso-8859-1"?>
<!-- Generator: Adobe Illustrator 19.0.0, SVG Export Plug-In . SVG Version: 6.00 Build 0) -->
<svg version="1.1" id="Capa_1" xmlns="http://www.w3.org/2000/svg" xmlns:xlink="http://www.w3.org/1999/xlink" x="0px" y="0px" viewBox="0 0 451 451" xml:space="preserve">
	<path
		className="gecko"
		id="XMLID_390_"
		d="M331.734,219.616c-1.836-2.882-5.017-4.627-8.434-4.627h-49.063l7.04-16.939
	c1.021-2.457,1.021-5.219,0-7.676l-3.795-9.132h45.818c3.417,0,6.598-1.745,8.434-4.627l48.529-76.166
	c2.968-4.657,1.598-10.839-3.061-13.807c-4.657-2.969-10.84-1.596-13.807,3.061l-14.74,23.134l-14.74-23.134
	c-2.967-4.659-9.149-6.03-13.807-3.061c-4.658,2.968-6.028,9.149-3.061,13.807l19.75,30.998l-18.983,29.795h-48.645l-16.519-39.749
	h36.859c3.641,0,6.994-1.979,8.754-5.166c1.76-3.187,1.648-7.078-0.29-10.16L234.112,4.674C232.282,1.766,229.086,0,225.648,0
	c-3.437,0-6.633,1.765-8.464,4.674l-63.865,101.493c-1.939,3.082-2.05,6.974-0.29,10.16c1.76,3.188,5.113,5.166,8.754,5.166h36.858
	l-16.519,39.749h-48.936l-18.985-29.795l19.75-30.998c2.968-4.657,1.598-10.839-3.06-13.807c-4.658-2.969-10.839-1.598-13.807,3.061
	l-14.741,23.134L87.604,89.702c-2.968-4.658-9.151-6.026-13.807-3.06c-4.658,2.968-6.028,9.149-3.06,13.808l48.531,76.166
	c1.836,2.881,5.017,4.626,8.434,4.626h46.11l-3.795,9.132c-1.021,2.457-1.021,5.219,0,7.676l7.04,16.939h-49.355
	c-3.417,0-6.597,1.745-8.434,4.626L70.736,295.78c-2.968,4.658-1.598,10.84,3.06,13.808c4.656,2.968,10.838,1.599,13.807-3.06
	l14.741-23.135l14.74,23.135c2.968,4.656,9.148,6.027,13.807,3.06c4.658-2.968,6.028-9.149,3.06-13.807l-19.75-30.997l18.985-29.795
	h52.181l29.405,70.754l-33.132,75.353c-1.18,2.684-1.123,5.749,0.155,8.387l27.08,55.879c1.671,3.448,5.167,5.639,8.999,5.639
	h21.676c3.832,0,7.328-2.19,8.999-5.639l27.079-55.879c1.335-2.755,1.335-5.968,0-8.722l-16.838-34.747
	c-1.671-3.449-5.166-5.64-8.999-5.64c-3.832,0-7.328,2.19-8.999,5.639l-18.38,37.927c-2.409,4.971-0.332,10.952,4.638,13.36
	c4.969,2.407,10.951,0.332,13.36-4.638l9.381-19.357l5.726,11.816L233.284,431h-9.143l-22.333-46.083l32.994-75.038
	c0.034-0.079,0.067-0.157,0.1-0.236l31.024-74.653h51.889l18.983,29.794l-19.75,30.998c-2.968,4.657-1.598,10.839,3.061,13.807
	c4.658,2.971,10.84,1.597,13.807-3.061l14.74-23.134l14.74,23.134c2.967,4.658,9.148,6.03,13.807,3.061
	c4.658-2.968,6.028-9.149,3.061-13.807L331.734,219.616z M179.891,101.493l45.757-72.717l45.756,72.717H179.891z M225.648,279.796
	l-35.568-85.584l30.22-72.719h10.694l30.22,72.719L225.648,279.796z"/>
	<g></g>
	<g></g>
	<g></g>
	<g></g>
	<g></g>
	<g></g>
	<g></g>
	<g></g>
	<g></g>
	<g></g>
	<g></g>
	<g></g>
	<g></g>
	<g></g>
	<g></g>
</svg>
