<!-- <?xml version="1.0"?>
<svg viewBox="0 0 64 64" width="150" height="150" xmlns="http://www.w3.org/2000/svg" xmlns:xlink="http://www.w3.org/1999/xlink">
  <g id="Medicine-2" data-name="Medicine" >
    <path className='svga rotate' style={{transformOrigin: '50% 50%'}} d="M34.311,4.1l1.4-1.4L34.293,1.293l-3,3a1,1,0,0,0,0,1.414l3,3,1.414-1.414L34.54,6.126a26,26,0,0,1,2.225,51.438l.363,1.967A28,28,0,0,0,34.311,4.1Z" />
    <path className='svgb rotate' style={{transformOrigin: '50% 50%'}} d="M29.707,55.293l-1.414,1.414,1.167,1.167A26,26,0,0,1,28.154,6.282L27.861,4.3A28,28,0,0,0,29.689,59.9l-1.4,1.4,1.414,1.414,3-3a1,1,0,0,0,0-1.414Z"/>
    <path className='svgc pulsate'  d="M32,16A16,16,0,1,0,48,32,16.019,16.019,0,0,0,32,16Zm0,30A14,14,0,1,1,46,32,14.015,14.015,0,0,1,32,46Z"/>
    <path className='svgd pulsate' d="M41,28H36V23a1,1,0,0,0-1-1H29a1,1,0,0,0-1,1v5H23a1,1,0,0,0-1,1v6a1,1,0,0,0,1,1h5v5a1,1,0,0,0,1,1h6a1,1,0,0,0,1-1V36h5a1,1,0,0,0,1-1V29A1,1,0,0,0,41,28Zm-1,6H35a1,1,0,0,0-1,1v5H30V35a1,1,0,0,0-1-1H24V30h5a1,1,0,0,0,1-1V24h4v5a1,1,0,0,0,1,1h5Z"/>
  </g>
</svg> -->

<svg xmlns="http://www.w3.org/2000/svg" xmlns:xlink="http://www.w3.org/1999/xlink" viewBox="0 0 64 64" width="512" height="512">
  <g id="Medicine-2" data-name="Medicine">
    <path d="M34.311,4.1l1.4-1.4L34.293,1.293l-3,3a1,1,0,0,0,0,1.414l3,3,1.414-1.414L34.54,6.126a26,26,0,0,1,2.225,51.438l.363,1.967A28,28,0,0,0,34.311,4.1Z" style="fill:#297844"/>
    <path d="M29.707,55.293l-1.414,1.414,1.167,1.167A26,26,0,0,1,28.154,6.282L27.861,4.3A28,28,0,0,0,29.689,59.9l-1.4,1.4,1.414,1.414,3-3a1,1,0,0,0,0-1.414Z" style="fill:#19649a"/>
    <path d="M32,16A16,16,0,1,0,48,32,16.019,16.019,0,0,0,32,16Zm0,30A14,14,0,1,1,46,32,14.015,14.015,0,0,1,32,46Z" style="fill:#19649a"/>
    <path d="M41,28H36V23a1,1,0,0,0-1-1H29a1,1,0,0,0-1,1v5H23a1,1,0,0,0-1,1v6a1,1,0,0,0,1,1h5v5a1,1,0,0,0,1,1h6a1,1,0,0,0,1-1V36h5a1,1,0,0,0,1-1V29A1,1,0,0,0,41,28Zm-1,6H35a1,1,0,0,0-1,1v5H30V35a1,1,0,0,0-1-1H24V30h5a1,1,0,0,0,1-1V24h4v5a1,1,0,0,0,1,1h5Z" style="fill:#297844"/>
  </g>
</svg>
