<?xml version="1.0"?>
<svg xmlns="http://www.w3.org/2000/svg" xmlns:xlink="http://www.w3.org/1999/xlink" viewBox="0 0 64 64" width="512" height="512">
  <defs>
    <linearGradient id="New_Gradient_Swatch_copy" x1="32.838" y1="63.659" x2="31.839" y2="0.913" gradientUnits="userSpaceOnUse">
      <stop offset="0" stop-color="#e93e3a"/>
      <stop offset="0.36" stop-color="#ed683c"/>
      <stop offset="0.716" stop-color="#f3903f"/>
      <stop offset="1" stop-color="#fdc70c"/>
    </linearGradient>
    <linearGradient id="New_Gradient_Swatch_copy-2" x1="17.894" y1="63.897" x2="16.896" y2="1.15" gradientTransform="translate(17.15 -7.104) rotate(45)" xlink:href="#New_Gradient_Swatch_copy"/>
    <linearGradient id="New_Gradient_Swatch_copy-3" x1="11.509" y1="63.998" x2="10.511" y2="1.252" xlink:href="#New_Gradient_Swatch_copy"/>
    <linearGradient id="New_Gradient_Swatch_copy-4" x1="17.422" y1="63.904" x2="16.423" y2="1.158" gradientTransform="translate(38.151 1.595) rotate(45)" xlink:href="#New_Gradient_Swatch_copy"/>
    <linearGradient id="New_Gradient_Swatch_copy-5" x1="32.17" y1="63.67" x2="31.171" y2="0.923" xlink:href="#New_Gradient_Swatch_copy"/>
    <linearGradient id="New_Gradient_Swatch_copy-6" x1="47.114" y1="63.432" x2="46.115" y2="0.685" gradientTransform="translate(46.85 -19.406) rotate(45)" xlink:href="#New_Gradient_Swatch_copy"/>
    <linearGradient id="New_Gradient_Swatch_copy-7" x1="53.499" y1="63.33" x2="52.5" y2="0.584" xlink:href="#New_Gradient_Swatch_copy"/>
    <linearGradient id="New_Gradient_Swatch_copy-8" x1="47.586" y1="63.424" x2="46.587" y2="0.678" gradientTransform="translate(25.849 -28.104) rotate(45)" xlink:href="#New_Gradient_Swatch_copy"/>
    <linearGradient id="New_Gradient_Swatch_copy-9" x1="46.217" y1="63.446" x2="45.218" y2="0.7" xlink:href="#New_Gradient_Swatch_copy"/>
    <linearGradient id="New_Gradient_Swatch_copy-10" x1="18.791" y1="63.883" x2="17.792" y2="1.136" xlink:href="#New_Gradient_Swatch_copy"/>
    <linearGradient id="New_Gradient_Swatch_copy-11" x1="32.504" y1="63.664" x2="31.505" y2="0.918" xlink:href="#New_Gradient_Swatch_copy"/>
  </defs>
  <g id="Medicine-2" data-name="Medicine">
    <rect x="31" y="10" width="2" height="2" style="fill:url(#New_Gradient_Swatch_copy)"/>
    <rect x="16.15" y="16.15" width="2" height="2" transform="translate(-7.104 17.15) rotate(-45)" style="fill:url(#New_Gradient_Swatch_copy-2)"/>
    <rect x="10" y="31" width="2" height="2" style="fill:url(#New_Gradient_Swatch_copy-3)"/>
    <rect x="16.15" y="45.85" width="2" height="2" transform="translate(-28.104 25.849) rotate(-45)" style="fill:url(#New_Gradient_Swatch_copy-4)"/>
    <rect x="31" y="52" width="2" height="2" style="fill:url(#New_Gradient_Swatch_copy-5)"/>
    <rect x="45.85" y="45.85" width="2" height="2" transform="translate(-19.406 46.85) rotate(-45)" style="fill:url(#New_Gradient_Swatch_copy-6)"/>
    <rect x="52" y="31" width="2" height="2" style="fill:url(#New_Gradient_Swatch_copy-7)"/>
    <rect x="45.85" y="16.15" width="2" height="2" transform="translate(1.595 38.151) rotate(-45)" style="fill:url(#New_Gradient_Swatch_copy-8)"/>
    <path d="M34.311,4.1l1.4-1.4L34.293,1.293l-3,3a1,1,0,0,0,0,1.414l3,3,1.414-1.414L34.54,6.126a26,26,0,0,1,2.225,51.438l.363,1.967A28,28,0,0,0,34.311,4.1Z" style="fill:url(#New_Gradient_Swatch_copy-9)"/>
    <path d="M29.707,55.293l-1.414,1.414,1.167,1.167A26,26,0,0,1,28.154,6.282L27.861,4.3A28,28,0,0,0,29.689,59.9l-1.4,1.4,1.414,1.414,3-3a1,1,0,0,0,0-1.414Z" style="fill:url(#New_Gradient_Swatch_copy-10)"/>
    <path d="M32,16A16,16,0,1,0,48,32,16.019,16.019,0,0,0,32,16Zm0,30A14,14,0,1,1,46,32,14.015,14.015,0,0,1,32,46Z" style="fill:url(#New_Gradient_Swatch_copy-11)"/>
    <path d="M41,28H36V23a1,1,0,0,0-1-1H29a1,1,0,0,0-1,1v5H23a1,1,0,0,0-1,1v6a1,1,0,0,0,1,1h5v5a1,1,0,0,0,1,1h6a1,1,0,0,0,1-1V36h5a1,1,0,0,0,1-1V29A1,1,0,0,0,41,28Zm-1,6H35a1,1,0,0,0-1,1v5H30V35a1,1,0,0,0-1-1H24V30h5a1,1,0,0,0,1-1V24h4v5a1,1,0,0,0,1,1h5Z" style="fill:url(#New_Gradient_Swatch_copy-11)"/>
  </g>
</svg>
