<svg width="64" height="64" xmlns="http://www.w3.org/2000/svg">

 <g>
  <title>background</title>
  <rect fill="none" id="canvas_background" height="402" width="582" y="-1" x="-1"/>
 </g>
 <g>
  <title>Layer 1</title>
  <rect rx="14" stroke="#000" id="svg_5" height="64" width="64.333037" y="0.999995" x="-0.166519" stroke-width="0" fill="#ffffff"/>
  <g id="Medicine-2">
   <path id="svg_1" fill="#297844" d="m34.317554,4.096499l1.4,-1.4l-1.418,-1.407l-3,3a1,1 0 0 0 0,1.414l3,3l1.414,-1.414l-1.167,-1.167a26,26 0 0 1 2.225,51.438l0.363,1.967a28,28 0 0 0 -2.817,-55.431z"/>
   <path id="svg_2" fill="#19649a" d="m29.713554,55.289499l-1.414,1.414l1.167,1.167a26,26 0 0 1 -1.306,-51.592l-0.293,-1.982a28,28 0 0 0 1.828,55.6l-1.4,1.4l1.414,1.414l3,-3a1,1 0 0 0 0,-1.414l-2.996,-3.007z"/>
   <path id="svg_3" fill="#19649a" d="m32.006554,15.996499a16,16 0 1 0 16,16a16.019,16.019 0 0 0 -16,-16zm0,30a14,14 0 1 1 14,-14a14.015,14.015 0 0 1 -14,14z"/>
   <path id="svg_4" fill="#297844" d="m41.006554,27.996499l-5,0l0,-5a1,1 0 0 0 -1,-1l-6,0a1,1 0 0 0 -1,1l0,5l-5,0a1,1 0 0 0 -1,1l0,6a1,1 0 0 0 1,1l5,0l0,5a1,1 0 0 0 1,1l6,0a1,1 0 0 0 1,-1l0,-5l5,0a1,1 0 0 0 1,-1l0,-6a1,1 0 0 0 -1,-1zm-1,6l-5,0a1,1 0 0 0 -1,1l0,5l-4,0l0,-5a1,1 0 0 0 -1,-1l-5,0l0,-4l5,0a1,1 0 0 0 1,-1l0,-5l4,0l0,5a1,1 0 0 0 1,1l5,0l0,4z"/>
  </g>
 </g>
</svg>